<?xml version="1.0" encoding="UTF-8" standalone="no"?>
<!-- Generator: Adobe Illustrator 15.0.0, SVG Export Plug-In . SVG Version: 6.00 Build 0)  -->

<svg
   xmlns:dc="http://purl.org/dc/elements/1.1/"
   xmlns:cc="http://creativecommons.org/ns#"
   xmlns:rdf="http://www.w3.org/1999/02/22-rdf-syntax-ns#"
   xmlns:svg="http://www.w3.org/2000/svg"
   xmlns="http://www.w3.org/2000/svg"
   xmlns:sodipodi="http://sodipodi.sourceforge.net/DTD/sodipodi-0.dtd"
   xmlns:inkscape="http://www.inkscape.org/namespaces/inkscape"
   version="1.1"
   id="Objets"
   x="0px"
   y="0px"
   width="706.84497"
   height="239.00999"
   viewBox="0 0 706.84497 239.00999"
   enable-background="new 0 0 800 800"
   xml:space="preserve"
   inkscape:version="0.91 r13725"
   sodipodi:docname="interligne.svg"><metadata
     id="metadata9"><rdf:RDF><cc:Work
         rdf:about=""><dc:format>image/svg+xml</dc:format><dc:type
           rdf:resource="http://purl.org/dc/dcmitype/StillImage" /><dc:title></dc:title></cc:Work></rdf:RDF></metadata><defs
     id="defs7" /><sodipodi:namedview
     pagecolor="#ffffff"
     bordercolor="#666666"
     borderopacity="1"
     objecttolerance="10"
     gridtolerance="10"
     guidetolerance="10"
     inkscape:pageopacity="0"
     inkscape:pageshadow="2"
     inkscape:window-width="1152"
     inkscape:window-height="818"
     id="namedview5"
     showgrid="false"
     inkscape:zoom="0.295"
     inkscape:cx="400"
     inkscape:cy="400"
     inkscape:window-x="65"
     inkscape:window-y="24"
     inkscape:window-maximized="0"
     inkscape:current-layer="Objets" /><path
     d="m 696.16116,56.209995 c -7.3758,-14.42371 -16.9874,-25.93503 -28.55821,-34.21169 C 655.92844,13.698635 643.35498,8.0120345 629.12197,4.6277045 614.55475,1.5081345 601.15153,1.4450684e-4 588.07099,1.4450684e-4 c -31.17432,0 -56.25207,10.34869049316 -74.56482,30.72376049316 -3.74553,1.17416 -7.38734,2.35982 -10.79864,3.60304 -25.12386,9.00187 -49.7291,20.23693 -75.29089,34.34982 -7.88288,4.33978 -15.93866,8.94432 -24.60523,14.04383 -3.53809,-2.03749 -7.52564,-4.39732 -11.55928,-6.82622 -6.6267,-3.98292 -13.35713,-7.93131 -20.49092,-12.00632 7.68698,-4.50093 15.56988,-8.96733 23.95985,-13.58337 18.64697,-10.37171 38.9996,-16.69144 60.48164,-24.55368 20.14518,-7.21761 41.71942,-7.95433 64.11192,-7.95433 l 10.39528,0 -8.89707,-8.2996705 c -1.93615,-1.17416 -4.88648,-3.68364 -8.71268,-4.96139 l -0.10372,-0.77126 -0.11525,-0.36837 c -3.86077,-1.00148 -9.63464,-1.58856 -19.2693,-1.58856 -16.53794,0 -34.6202,3.59154 -53.77425,10.8436805 -19.75334,7.82771 -39.91006,17.10584 -59.92846,27.73081 -8.67811,4.60453 -17.24095,9.22057 -25.49264,13.77906 -8.25169,-4.55849 -16.79149,-9.20906 -25.48111,-13.82511 C 307.91701,29.699395 287.7603,20.375205 268.05307,12.570525 248.86444,5.2838445 230.77066,1.6232445 214.2327,1.6232445 c -9.62312,0 -15.39699,2.04902 -19.26929,3.01597 l -0.0692,1.64612 -0.10372,0 c -3.8262,0 -6.78805,3.63758 -8.71268,4.8117405 l -8.90859,6.6996 10.4068,0 c 22.38098,0 43.95523,0.73672 64.12345,7.98887 21.47052,7.8277 41.80009,15.59785 60.43554,25.96956 8.41302,4.60454 16.31898,8.35723 23.98291,12.84666 -7.09923,4.075 -13.84118,7.64352 -20.47941,11.61493 -4.05668,2.50947 -8.04424,4.66209 -11.55927,6.68809 -8.66658,-5.09952 -16.72235,-9.81917 -24.61677,-14.17046 -25.53874,-14.07836 -50.17855,-25.34796 -75.30239,-34.36133 -3.39979,-1.23171 -7.01854,-2.46343 -10.7756,-3.61456 -18.31274,-20.37506 -43.41356,-30.72375049 -74.58787,-30.72375049 -13.05749,0 -26.460724,1.49646999 -40.970333,4.59301999 C 63.512623,8.0235545 50.950704,13.710145 39.287705,22.009825 27.716908,30.286465 18.093784,41.797805 10.729493,56.233015 3.5150357,70.299875 0,88.176965 0,110.88884 c 0,1.85332 0.04613998,3.7642 0.14982395,5.73264 C 0.04610198,118.70504 0,120.65045 0,122.60738 c 0,22.00967 3.6072297,40.09397 11.052192,55.26591 6.845667,14.34313 16.607095,26.64875 28.166371,35.50096 11.3864,8.76012 23.9368,15.17193 38.365725,19.64985 13.898798,3.98292 27.751492,5.98589 41.223872,5.98589 16.81454,0 31.04754,-1.85333 43.51728,-5.65206 2.7083,-0.92091 5.3705,-2.01449 7.99814,-3.2462 l 7.01853,3.68362 c 6.67281,3.52247 18.19751,5.21464 35.23102,5.21464 21.21698,0 42.53767,-4.08653 65.14914,-12.53585 3.60724,-1.31229 6.86872,-2.60155 10.18784,-3.92536 18.35886,-7.40178 36.74075,-16.06983 56.28664,-26.48759 3.08863,-1.68064 6.13114,-3.37281 9.20824,-5.07649 3.0771,1.70368 6.13115,3.40736 9.20824,5.07649 19.53437,10.40625 37.95084,19.08581 56.29816,26.48759 3.33065,1.32381 6.59213,2.61307 10.21089,3.93688 22.61146,8.42629 43.92064,12.52433 65.13762,12.52433 17.02198,0 28.54668,-1.69217 35.21949,-5.21464 l 7.03006,-3.6606 c 2.58154,1.20869 5.23222,2.27924 7.91748,3.18864 12.55039,3.83327 26.79493,5.6866 43.58642,5.6866 13.4839,0 27.33658,-2.00297 41.16624,-5.96287 14.48654,-4.50094 27.06,-10.91275 38.44639,-19.68438 11.55928,-8.8407 21.30918,-21.14632 28.1779,-35.53549 7.43343,-15.11438 11.04067,-33.2102 11.04067,-55.21987 0,-1.9339 -0.0462,-3.89084 -0.14983,-5.9859 0.10373,-1.94541 0.14983,-3.8678 0.14983,-5.73264 0.0462,-22.723375 -3.46893,-40.600485 -10.68341,-54.678845 z m 0.95656,55.841485 c -0.28811,12.10992 -3.05405,23.49463 -8.29778,33.8203 5.25527,-10.32567 8.00967,-21.72189 8.29778,-33.8203 l 0,0 z m -324.13225,13.54884 c 0.48404,-0.28778 0.9335,-0.6101 1.42906,-0.90939 9.71533,-6.40031 19.5459,-12.70852 29.28428,-18.82104 5.56643,3.26922 10.34918,5.99741 14.94754,8.50689 4.17194,2.56701 8.71267,5.16858 13.03444,7.48236 0.38032,0.23022 0.76063,0.42592 1.15246,0.64463 -11.5247,6.8032 -22.20809,13.24954 -32.46508,19.66137 -9.09299,-5.29522 -18.25513,-10.85519 -27.3827,-16.56482 z M 663.94963,42.799295 c -11.91655,-7.72411 -25.46958,-13.56036 -40.3134,-17.33608 -14.76315,-3.32676 -28.17791,-4.97289 -41.0971,-4.97289 -16.03086,0 -31.87732,1.58856 -47.25128,4.69663 13.27646,-8.87524 30.69028,-13.21502 52.80619,-13.21502 36.3489,0 63.35128,9.22058 80.24649,27.36244 5.33594,5.64056 9.8882,11.84516 13.59916,18.56778 -5.28985,-5.53695 -11.24812,-10.5674 -17.99006,-15.10286 z m -217.06776,37.08952 c 23.29142,-13.9057 46.6059,-25.53215 69.3326,-34.63761 22.33488,-8.89826 44.96938,-13.42222 67.29274,-13.42222 16.03085,0 30.55198,2.16413 44.40467,6.67657 13.94489,4.85779 25.46959,11.18903 35.16188,19.30452 9.77294,7.90828 17.39076,17.39363 23.37209,29.03158 4.03364,8.05794 6.63823,16.599345 7.80222,25.359475 -0.36879,13.37617 -3.81467,25.67028 -10.29156,36.56 -7.01855,11.76458 -15.82342,21.49166 -26.93323,29.72227 -11.07524,8.20757 -23.08397,14.57335 -36.70618,19.44264 -14.0947,4.68511 -26.67968,6.98738 -38.41182,6.98738 -26.8295,0 -53.54377,-4.6736 -79.46282,-13.82511 -25.43503,-9.01338 -50.91615,-20.45565 -75.7634,-33.96996 -0.77216,-0.44894 -1.70565,-0.96694 -2.66221,-1.50798 -0.86435,-0.44894 -1.69413,-0.9094 -2.50085,-1.36984 -1.11789,-0.62162 -2.21274,-1.25475 -3.31911,-1.86484 11.55927,-7.07947 22.9572,-13.79058 33.99786,-20.05275 13.41476,6.3888 27.46336,12.23655 41.77705,17.38211 21.37832,7.52842 43.20611,11.23507 66.75107,11.23507 27.68233,0 48.62273,-4.39734 64.01972,-13.41071 15.74274,-9.2436 25.60788,-18.26848 30.11404,-27.58116 l 0.1844,-0.3223 0.0576,-0.36837 c 0.36879,-1.8303 0.63386,-4.17862 -0.67996,-5.79021 -0.71453,-0.85184 -1.71717,-1.3238 -2.86965,-1.3238 -1.90157,0 -3.92992,1.31229 -6.97244,4.57 l -0.31117,0.34534 -0.20745,0.41441 c -3.58419,7.79318 -11.68604,14.89567 -24.75505,21.7334 -13.19579,6.9068 -29.71068,10.40624 -49.1298,10.40624 -17.41382,0 -35.78421,-3.63757 -54.61556,-10.8667 -13.88727,-5.22614 -27.72845,-11.16599 -42.14584,-18.10732 1.65956,-0.87486 3.31912,-1.77275 4.97867,-2.64761 22.27725,-11.91424 44.83109,-22.032685 67.05071,-30.079125 16.73387,-6.15856 33.69823,-9.98032 50.5704,-11.46528 0.14982,0.0691 0.31116,0.11512 0.46099,0.1957 7.19141,3.59152 13.61068,11.22354 16.30745,19.45415 2.27036,6.964345 1.80937,13.963245 -1.40601,20.144835 -3.06557,5.87077 -10.94848,11.79911 -19.85707,10.90123 -3.45742,-0.32232 -7.97509,-2.67063 -9.87667,-4.54697 -1.80938,-1.74973 -3.60722,-5.09954 -3.99907,-7.45935 -0.86435,-4.96139 1.15248,-10.88972 6.68433,-12.5934 2.22426,-0.72521 6.98396,0.34534 8.40151,3.10806 0.80673,1.48496 0.92197,2.544 0.44946,3.71816 -0.25354,0.58708 -1.12943,0.62161 -1.31382,0.62161 -0.28812,0 -0.53014,-0.0691 -0.66843,-0.0921 -0.33422,-1.05904 -1.17552,-1.70367 -2.21274,-1.70367 -1.03723,0 -2.08598,0.67916 -2.61611,1.70367 -0.50709,0.94393 -0.43794,2.06053 0.19591,2.96992 0.95656,1.34682 2.52391,2.08356 4.36787,2.08356 2.99643,0 6.66128,-2.026 7.59478,-5.74415 1.48669,-5.96288 -3.54961,-12.052375 -9.06995,-13.514315 -5.52032,-1.46193 -10.9715,0.42593 -15.2126,5.283705 -3.96449,4.52394 -6.38468,11.13145 -5.75082,15.71297 1.53278,11.11995 9.68075,16.12737 14.4174,18.14186 3.3652,1.4159 7.00701,2.14111 10.82169,2.14111 3.86078,0 7.75613,-0.73672 11.22507,-2.17564 11.06371,-4.55849 15.80036,-13.6064 17.64431,-18.56779 2.86965,-7.68957 2.86965,-16.277015 0.023,-24.185295 -2.20123,-6.12404 -5.84303,-11.52287 -10.45291,-15.9317 6.43078,0.0691 13.63372,2.25622 21.33222,6.88378 7.53715,4.81174 12.10094,8.95582 13.4378,12.45526 l 0.21897,0.54104 0.46099,0.41441 c 1.25619,1.23171 2.90423,1.89937 4.64445,1.89937 0.43794,0 0.87589,-0.0691 1.3484,-0.14966 1.50973,-0.1151 2.71983,-0.9209 3.24996,-2.18715 0.57624,-1.36985 0.24202,-2.95841 -0.92197,-4.29372 -3.88383,-7.2982 -8.37847,-12.62794 -13.77203,-16.32308 -5.03628,-3.70665 -10.81016,-2.34831 -16.65319,-4.38582 l -0.11524,4.38582 -0.10372,0 c -5.34747,0 -11.76673,-7.47085 -18.58935,-7.49388 l -2.57001,-2.35982 c -5.12849,-0.24174 -9.54245,-1.58857 -13.79507,-1.58857 -3.75706,0 -7.53715,-0.40289 -11.3403,-0.11511 -1.22162,-0.0691 -2.47782,-0.35686 -3.71096,-0.35686 -11.09829,0 -21.02105,2.50948 -30.794,6.14706 -6.2003,1.72671 -12.43516,3.71816 -18.70459,6.14706 -20.69838,8.03491 -42.76818,18.47569 -67.41951,31.989995 -1.68261,0.94393 -3.3537,1.88785 -5.02477,2.8433 -9.48483,-4.99592 -20.1106,-10.647975 -30.56352,-16.449695 8.21712,-4.9729 16.30747,-9.76161 24.09817,-14.22802 z M 581.23685,218.53133 c 14.35976,0 29.03072,-2.40587 44.84261,-7.3097 15.37395,-5.12254 28.927,-12.1905 40.31341,-20.97365 4.96713,-3.72967 9.6116,-7.9198 13.92183,-12.54735 -3.44588,5.84775 -7.44495,11.24657 -11.97417,16.10435 -8.87402,9.76161 -20.02993,17.73896 -33.2718,23.71335 -12.98835,6.2046 -28.35077,9.18604 -47.00927,9.18604 -18.03615,0 -32.41898,-1.96844 -43.95521,-6.00892 -5.81998,-2.04901 -10.84474,-4.29372 -15.0743,-6.7111 16.79148,2.99294 34.28598,4.54698 52.2069,4.54698 z M 610.35976,74.466975 c -0.0692,-0.0575 -0.12677,-0.1036 -0.19591,-0.16116 0.57623,-0.0115 1.11789,-0.0345 1.68261,-0.0345 -0.49557,0 -1.00265,0.17268 -1.4867,0.1957 z m -16.90674,0.88637 c -0.0462,0 -0.0807,0 -0.12677,0 -13.03443,0 -26.67969,-2.99295 -38.4925,-0.24174 11.85891,-2.75121 25.57332,0.24174 38.61927,0.24174 z m -179.88906,18.82104 4.05669,0.49499 c 11.19048,6.227625 24.10968,12.236535 34.18226,17.531755 l 6.45384,-3.22317 c 24.23644,-13.284075 46.34082,-23.644285 66.7165,-31.598615 -0.28812,0.13813 -0.40336,0.35685 -0.67996,0.58707 -20.14519,7.91981 -41.46588,18.01525 -65.34506,31.126645 l -5.61254,3.20015 C 443.27463,106.95196 428.7996,100.92002 417.5976,94.692385 l -4.03364,-0.49497 0,-0.023 z M 40.566969,190.25949 c 11.374882,8.77164 24.916403,15.82808 40.232727,20.9276 15.857999,4.92686 30.528944,7.33272 44.900244,7.33272 17.92092,0 35.42694,-1.55403 52.20691,-4.55848 -4.22956,2.41738 -9.26586,4.66209 -15.08585,6.7111 -11.52469,4.052 -25.90752,6.00892 -43.96672,6.00892 -18.63545,0 -33.997875,-2.98143 -46.95164,-9.14 -13.264938,-6.00891 -24.443902,-13.99778 -33.271823,-23.72486 -4.552256,-4.8808 -8.574376,-10.29113 -12.00874,-16.13889 4.310239,4.65058 8.954696,8.86373 13.944892,12.58189 z M 22.957227,148.76113 c -6.465357,-10.87821 -9.899721,-23.18383 -10.268511,-36.56 1.140941,-8.76013 3.757053,-17.301535 7.813744,-25.417025 5.969794,-11.59192 13.599151,-21.05423 23.314478,-28.96253 9.726845,-8.13851 21.251554,-14.46974 35.254059,-19.35055 13.783549,-4.48942 28.316193,-6.65355 44.358583,-6.65355 22.31182,0 44.94634,4.52396 67.28121,13.42222 22.72671,9.10546 46.04117,20.73191 69.2865,34.62609 7.83681,4.48943 15.93867,9.26663 24.15579,14.25105 -10.39528,5.77868 -21.03259,11.396205 -30.57504,16.438175 -1.65955,-0.96696 -3.31911,-1.91088 -4.97867,-2.85482 -24.69744,-13.537315 -46.75571,-24.012635 -67.45408,-32.047545 -6.15419,-2.37134 -12.25075,-4.39734 -18.3358,-6.12403 -9.68076,-3.76421 -19.61505,-6.44635 -30.80553,-6.44635 -1.25619,0 -2.52392,0.11511 -3.76858,0.19569 -3.9184,-0.29929 -7.80222,-0.49499 -11.65147,-0.49499 -4.24109,0 -8.67811,0.23023 -13.81813,0.49499 l -2.55848,4.56999 c -6.845664,0.023 -13.230356,7.49389 -18.589334,7.49389 l -0.0922,0 -0.10372,-4.40884 c -5.808448,2.03751 -11.605376,2.88934 -16.710814,6.61901 -5.324419,3.67212 -9.842102,7.9198 -13.702879,15.20649 -1.14094,1.32379 -1.48668,2.35982 -0.921974,3.70664 0.541664,1.27777 1.740237,1.79577 3.261488,1.93391 0.437942,0.0691 0.910455,-0.0116 1.348398,-0.0116 1.728706,0 3.376732,-0.72521 4.632926,-1.99147 l 0.460993,-0.47196 0.218966,-0.6101 c 1.336866,-3.48793 5.889122,-7.90828 13.518479,-12.76606 7.756127,-4.62757 15.028214,-7.21761 21.551196,-7.21761 0.26507,0 0.54166,0 0.80673,0 -4.425489,11.51133 -7.929001,9.47382 -10.18784,15.25252 -3.042529,7.85073 -3.238439,16.530265 -0.58777,24.254375 1.717189,5.04196 6.246401,14.2165 17.194865,19.07428 3.66485,1.6231 7.76766,2.49796 11.8935,2.49796 3.56113,0 6.96092,-0.63313 10.14173,-1.88786 4.77122,-1.88786 13.08055,-6.68809 14.86688,-17.75047 0.74909,-4.67361 -1.5789,-11.43076 -5.53187,-16.06983 -4.10279,-4.811735 -9.40416,-6.768665 -14.91296,-5.467875 -5.54339,1.34682 -10.75255,7.286665 -9.39263,13.261045 0.82977,3.72967 4.51768,5.96287 7.6063,5.96287 1.7748,0 3.28454,-0.69068 4.26414,-1.99145 0.64538,-0.88638 0.73758,-2.01449 0.24202,-3.00446 -0.53013,-1.013 -1.56736,-1.72671 -2.62763,-1.72671 -0.80673,0 -1.78633,0.44895 -2.21274,1.66915 -0.11525,0.0461 -0.33422,0.0691 -0.59929,0.0691 -0.18439,0 -1.10637,-0.023 -1.33687,-0.63313 -0.46099,-1.19718 -0.29963,-2.2332 0.56471,-3.75269 1.44059,-2.67064 6.16572,-3.66061 8.45913,-2.85482 5.46271,1.84181 7.34124,7.82771 6.36164,12.76607 -0.46099,2.3368 -2.35105,5.61753 -4.195,7.35575 -1.94767,1.81879 -6.51145,4.02897 -9.9919,4.28222 -8.88556,0.64462 -16.630156,-5.38732 -19.580485,-11.38472 -3.042519,-6.27368 -3.353679,-13.26105 -0.87587,-20.190885 2.800499,-7.89676 9.035365,-15.09136 16.030865,-18.61382 16.68775,1.5195 33.43316,5.35277 50.00568,11.41924 22.24267,8.04643 44.80804,18.164895 67.05072,30.079125 1.67107,0.87485 3.33062,1.77274 5.0017,2.6476 -14.41739,6.95284 -28.25857,12.88119 -42.14582,18.10732 -18.83136,7.22913 -37.21327,10.86672 -54.62708,10.86672 -19.4076,0 -35.93403,-3.51096 -49.129816,-10.40625 -13.069015,-6.83774 -21.170882,-13.94023 -24.743531,-21.73341 l -0.20745,-0.4144 -0.32269,-0.34534 c -3.054052,-3.25771 -5.070878,-4.57 -6.972449,-4.57 -1.140942,0 -2.15512,0.47196 -2.858128,1.3238 -1.290767,1.61159 -1.06027,3.9599 -0.679959,5.7902 l 0.06916,0.36837 0.172874,0.32231 c 4.517684,9.31267 14.35977,18.33756 30.114044,27.58115 15.396999,9.01338 36.325865,13.41071 63.996675,13.41071 23.56801,0 45.38426,-3.69514 66.75107,-11.23506 14.33673,-5.14557 28.37381,-10.99332 41.81161,-17.38211 11.01761,6.26216 22.42707,12.97327 33.98634,20.05275 -1.10636,0.61009 -2.17816,1.23171 -3.273,1.81878 -0.84131,0.5065 -1.68261,0.96695 -2.55849,1.4159 -0.94502,0.54103 -1.90158,1.05904 -2.7544,1.56554 -24.74353,13.45675 -50.24771,24.89902 -75.68273,33.91239 -25.896,9.15151 -52.61026,13.82511 -79.43977,13.82511 -11.74367,0 -24.32864,-2.30226 -38.492497,-7.0104 C 72.997509,192.99917 61.000296,186.6334 49.902003,178.42581 38.792189,170.25277 30.010369,160.52569 22.957256,148.76111 Z M 303.22646,105.86989 c 9.7038,6.0895 19.54589,12.40922 29.26121,18.80952 0.49556,0.31081 0.95656,0.6101 1.45212,0.92091 -9.10452,5.6866 -18.30123,11.25808 -27.37117,16.56482 -10.28003,-6.41183 -20.95191,-12.85817 -32.4766,-19.66137 0.39183,-0.21871 0.77214,-0.42591 1.16399,-0.64463 4.32176,-2.31378 8.86249,-4.92686 13.14968,-7.55144 4.437,-2.4404 9.21976,-5.15708 14.82077,-8.43781 z M 131.48535,97.132795 c -1.89006,-2.17564 -5.0363,-10.26812 -9.33501,-10.26812 0.023,0 0.0461,0 0.0576,0 4.32175,0 7.44495,8.08097 9.32347,10.31417 3.73402,4.362785 5.38204,13.134425 4.85191,16.438185 -1.49821,9.17452 -7.94052,14.87263 -13.06902,16.89864 -3.06556,1.19717 -6.4884,2.40586 -9.94581,2.29075 3.44588,0.11511 6.88025,-0.0691 9.92276,-1.25474 5.11697,-2.02599 11.58233,-8.92128 13.06902,-18.11884 0.53013,-3.30375 -1.14095,-11.90272 -4.87495,-16.300045 z m -18.2897,6.572965 0,0 c 0.29964,-0.67917 0.703,-1.3238 1.164,-1.9339 1.99377,-1.795755 4.89799,-2.670625 7.41038,-2.670625 -3.18081,0.0116 -6.88025,1.461925 -8.57438,4.604525 l 0,0 z M 98.006084,75.790775 c -4.609878,4.04048 -8.470657,9.19756 -10.94846,15.5288 -2.639169,6.80319 -3.342179,15.125885 -0.56472,23.183815 1.19857,3.48794 3.065583,7.03343 5.739312,10.19905 2.028349,2.39435 4.506158,4.55849 7.502577,6.35425 -3.007939,-1.78426 -5.485758,-3.9599 -7.502577,-6.35425 -2.673729,-3.1541 -4.540742,-6.71111 -5.739312,-10.19905 -2.777459,-8.04641 -2.074449,-16.380625 0.56472,-23.183815 2.477803,-6.33124 6.338582,-11.48832 10.94846,-15.5288 l 0,0 z M 124.3746,20.490325 c -12.90766,0 -26.322416,1.64613 -41.004895,4.94987 -14.924484,3.79874 -28.477534,9.63499 -40.359499,17.32456 -6.765005,4.57 -12.734798,9.60045 -18.036163,15.14892 3.71096,-6.73414 8.263216,-12.91572 13.599152,-18.54476 16.918262,-18.1764 43.920641,-27.39698 80.246515,-27.39698 22.12742,0 39.52971,4.33978 52.8177,13.21502 -15.37395,-3.10807 -31.20889,-4.69663 -47.26281,-4.69663 z m 229.33005,92.516595 -0.24202,0.14965 -0.21896,-0.13813 c -10.84475,-6.92983 -20.81362,-13.180475 -30.39065,-19.039745 4.58683,-2.86633 8.64354,-5.45638 12.49278,-7.98888 5.75082,-3.83327 11.69757,-7.65503 18.09378,-11.63796 6.40774,3.98293 12.34296,7.78167 18.10531,11.62645 3.83772,2.54401 7.89443,5.13406 12.50431,8.00039 -9.56552,5.85927 -19.52285,12.086895 -30.34455,19.028225 z m 27.45184,41.14151 c -9.32349,5.69811 -18.61239,11.21204 -27.70539,16.35761 -9.08146,-5.14557 -18.39342,-10.6595 -27.70537,-16.35761 9.54245,-5.45637 18.85441,-10.92426 27.70537,-16.32307 8.87403,5.39881 18.16294,10.8667 27.70539,16.32307 z m 35.94554,-67.283755 c 0.96808,0 1.95921,4.7657 2.93881,5.3643 11.1098,6.17007 22.18504,13.894165 33.24876,19.753435 0.0461,0.0116 0.0807,0.9209 0.13829,0.96695 2.10903,-1.20869 4.22957,-1.531 6.36164,-2.71667 -2.13207,1.19718 -4.25261,2.42889 -6.36164,3.66061 -0.0576,-0.023 -0.0922,-0.0691 -0.13829,-0.0806 -11.06372,-5.84775 -22.13896,-15.402155 -33.24876,-21.572235 -0.99113,-0.58706 -1.97073,-5.37579 -2.9849,-5.37579 0,0 0.0346,0 0.0462,0 z M 196.4962,211.12954 l 0.19592,-0.2072 0.12676,-0.23023 c 0.2305,-0.31081 0.40337,-0.64464 0.55319,-0.96696 6.2003,-1.6231 12.28533,-3.39584 18.12836,-5.37579 27.16371,-8.94431 50.92765,-18.75196 72.61714,-30.02156 2.58153,-1.05904 4.93257,-2.26773 7.43344,-3.56852 0.67995,-0.33383 1.3599,-0.70219 2.06292,-1.04753 3.42283,-1.83029 6.81109,-3.6606 10.17631,-5.52544 9.05841,5.583 18.23207,11.07391 27.39422,16.36912 -5.77388,3.09655 -11.27116,5.97438 -16.71083,8.71408 -10.16477,5.22615 -21.17087,10.45229 -32.74167,15.56333 -14.00252,5.73264 -26.41463,10.38322 -37.85864,14.20498 -19.32693,6.41182 -38.65386,9.69255 -57.4737,9.69255 -3.80315,0 -7.6524,-0.13814 -11.4325,-0.39139 l -4.47158,-0.32232 c 7.83679,-4.24768 15.18955,-9.89974 22.00066,-16.88712 z m 331.49652,17.20944 c -3.79163,0.25325 -7.62935,0.39139 -11.46708,0.39139 -18.79679,0 -38.12372,-3.28073 -57.45063,-9.69255 -11.4325,-3.81025 -23.84462,-8.47234 -37.93932,-14.25102 -11.47861,-5.05349 -22.49623,-10.29114 -32.64949,-15.49427 -5.45119,-2.76272 -10.93694,-5.62904 -16.71082,-8.7371 9.12756,-5.29521 18.31276,-10.78612 27.37117,-16.36912 3.37673,1.86484 6.75347,3.69515 10.13021,5.50242 0.77216,0.37988 1.46364,0.75974 2.15512,1.1166 2.47782,1.25474 4.82885,2.47494 7.41039,3.53398 21.67796,11.2696 45.4419,21.07726 72.62867,30.02156 5.80845,1.97995 11.91655,3.7527 18.11683,5.3758 0.13829,0.32231 0.31116,0.65615 0.53014,0.96695 l 0.14981,0.23022 0.1844,0.20721 c 6.82263,6.98738 14.17539,12.66247 22.01218,16.88713 l -4.47158,0.3108 z M 441.23476,26.245985 c 4.44854,-1.81878 8.93164,-3.60304 13.47238,-5.23765 -4.52922,1.66914 -9.01231,3.44189 -13.47238,5.23765 z m -11.07524,4.73116 c 0.9796,-0.44894 1.97072,-0.85183 2.95033,-1.30078 -0.97961,0.43744 -1.97073,0.84033 -2.95033,1.30078 z m 94.38732,-21.4341005 -4.43702,-2.17564 c -0.023,-0.0345 -0.023,-0.0345 -0.023,-0.0345 0,0 0,0 0.023,0.0345 l 4.43702,2.17564 z m -329.29532,-5.34126 c 3.8262,-0.95544 9.64618,-1.24322 19.01576,-1.24322 16.35356,0 34.286,3.69514 53.26717,10.9012305 19.68419,7.78167 39.7948,17.12887 59.76711,27.71929 8.89707,4.73117 17.70194,9.50837 26.16107,14.19348 -8.44761,-4.68511 -17.25247,-9.45081 -26.16107,-14.17046 C 307.34078,31.023195 287.21864,21.699015 267.53445,13.905845 248.55328,6.7112545 230.62084,3.0736745 214.26728,3.0736745 c -9.36958,0 -15.18956,0.42592 -19.01576,1.38136 -3.72247,1.23172 -6.5806,1.79577 -8.40151,2.87783 1.80938,-1.08206 4.66751,-1.88786 8.40151,-3.13108 z M 312.87263,49.049945 c -11.4325,-6.37728 -23.53344,-12.4898 -36.12993,-18.0728 12.58496,5.51394 24.70895,11.46529 36.12993,17.83106 9.03536,4.97289 17.82871,10.0609 26.14955,14.98776 -0.023,0.0115 -0.0692,0.0345 -0.0922,0.0575 -8.30932,-4.89231 -17.06809,-9.87672 -26.05735,-14.80357 z m -47.20518,-22.80396 c 2.74288,1.11661 5.42814,2.26774 8.13645,3.41887 -2.68526,-1.16264 -5.4051,-2.30226 -8.13645,-3.41887 z M 1.4751805,110.87733 c 0,1.95692 0.0576,3.89082 0.1613449,5.64055 l 0,0 c -0.103724,-1.74973 -0.1613449,-3.68363 -0.1613449,-5.64055 l 0,0 z m 703.8135495,5.79019 0,0 c 0.10373,1.83031 0.14982,3.8563 0.14982,5.92835 -0.0116,-2.07205 -0.0576,-4.09804 -0.14982,-5.92835 z m 0.1383,-5.79019 c 0,-22.470135 -3.44589,-40.128525 -10.55663,-53.999685 -7.26055,-14.20498 -16.72234,-25.54364 -28.10874,-33.68216 -11.49013,-8.20758 -23.90224,-13.8020905 -37.98542,-17.1518905 -14.42893,-3.10805 -27.72843,-4.5815 -40.67069,-4.5815 -30.89771,0 -55.72193,10.2796105 -73.75808,30.5280505 -3.92992,1.20869 -7.54869,2.41738 -11.1098,3.70665 -25.06624,8.96733 -49.62538,20.16786 -75.08345,34.24622 -8.06728,4.43186 -16.35355,9.17454 -25.30824,14.45824 -3.72249,-2.16413 -8.03271,-4.66209 -12.30838,-7.28667 -7.20293,-4.29373 -14.79772,-8.73711 -22.64605,-13.20351 0.0576,-0.0115 0.0922,-0.023 0.12677,-0.0575 7.80224,4.43186 15.36244,8.92128 22.51928,13.19199 4.27567,2.61308 8.58589,5.16859 12.30838,7.32121 8.95469,-5.2837 17.24096,-9.99184 25.30824,-14.44673 25.45807,-14.05533 50.01721,-25.25586 75.08345,-34.2232 3.56111,-1.30077 7.17988,-2.49795 11.1098,-3.70664 18.03615,-20.25995 42.8719,-30.5280605 73.75808,-30.5280605 12.94226,0 26.24176,1.48496 40.67069,4.58151 14.08318,3.3498 26.49529,8.9443005 37.98542,17.1518905 11.3864,8.13851 20.8597,19.46567 28.10874,33.68216 7.11074,13.87116 10.55663,31.52955 10.55663,53.999675 l 0,0 z"
     id="path3"
     inkscape:connector-curvature="0"
     style="fill:#0d1226" /></svg>